# AST/ASF file generated using VICON BodyLanguage
# -----------------------------------------------
:version 1.10
:name VICON
:units
  mass 1.0
  length 0.45
  angle deg
:documentation
   .ast/.asf automatically generated from VICON data using
   VICON BodyBuilder and BodyLanguage model FoxedUp or BRILLIANT.MOD
:root
   order TX TY TZ RX RY RZ
   axis XYZ
   position 0 0 0  
   orientation 0 0 0 
:bonedata
  begin
     id 1 
     name lhipjoint
     direction 0.537252 -0.787203 0.302774 
     length 2.29576 
     axis 0 0 0  XYZ
  end
  begin
     id 2 
     name lfemur
     direction 0.34202 -0.939693 0  
     length 7.31114  
     axis 0 0 20  XYZ
    dof rx ry rz
    limits (-160.0 20.0)
           (-70.0 70.0)
           (-60.0 70.0)
  end
  begin
     id 3 
     name ltibia
     direction 0.34202 -0.939693 0   
     length 8.36008   
     axis 0 0 20   XYZ
    dof rx
    limits (-10.0 170.0)
  end
  begin
     id 4 
     name lfoot
     direction 0.0969116 -0.266263 0.959016   
     length 2.16704   
     axis -90 7.62852e-016 20   XYZ
    dof rx rz
    limits (-45.0 90.0)
           (-70.0 20.0)
  end
  begin
     id 5 
     name ltoes
     direction 1.53563e-011 -4.21779e-011 1   
     length 1.08338   
     axis -90 7.62852e-016 20   XYZ
    dof rx
    limits (-90.0 20.0)
  end
  begin
     id 6 
     name rhipjoint
     direction -0.588228 -0.754791 0.290308   
     length 2.39434  
     axis 0 0 0  XYZ 
  end
  begin
     id 7 
     name rfemur
     direction -0.34202 -0.939693 0   
     length 7.45207   
     axis 0 0 -20   XYZ
    dof rx ry rz
    limits (-160.0 20.0)
           (-70.0 70.0)
           (-70.0 60.0)
  end
  begin
     id 8 
     name rtibia
     direction -0.34202 -0.939693 0   
     length 8.03565   
     axis 0 0 -20   XYZ
    dof rx
    limits (-10.0 170.0)
 end
 begin
     id 9 
     name rfoot
     direction -0.107009 -0.294004 0.949795   
     length 2.11509  
     axis -90 -7.62852e-016 -20   XYZ
    dof rx rz
    limits (-45.0 90.0)
           (-20.0 70.0)
  end
  begin
     id 10 
     name rtoes
     direction -1.53533e-011 -4.22004e-011 1   
     length 1.05493   
     axis -90 -7.62852e-016 -20   XYZ
    dof rx
    limits (-90.0 20.0)
  end
  begin
     id 11 
     name lowerback
     direction -0.0115208 0.997969 -0.0626515   
     length 2.03153   
     axis 0 0 0   XYZ
    dof rx ry rz
    limits (-20.0 45.0)
           (-30.0 30.0)
           (-30.0 30.0)
  end
  begin
     id 12 
     name upperback
     direction -0.00423475 0.999974 -0.00583614   
     length 2.03619   
     axis 0 0 0   XYZ
    dof rx ry rz
    limits (-20.0 45.0)
           (-30.0 30.0)
           (-30.0 30.0)
  end
  begin
     id 13 
     name thorax
     direction 0.00289429 0.999728 0.0231573   
     length 2.03921   
     axis 0 0 0   XYZ
    dof rx ry rz
    limits (-20.0 45.0)
           (-30.0 30.0)
           (-30.0 30.0)
  end
  begin
     id 14 
     name lowerneck
     direction 0.0188995 0.987777 0.154721   
     length 1.78836   
     axis 0 0 0   XYZ
    dof rx ry rz
    limits (-20.0 45.0)
           (-30.0 30.0)
           (-30.0 30.0)
  end
  begin
     id 15 
     name upperneck
     direction -0.00612612 0.992995 -0.118   
     length 1.81789   
     axis 0 0 0   XYZ
    dof rx ry rz
    limits (-20.0 45.0)
           (-30.0 30.0)
           (-30.0 30.0)
  end
  begin
     id 16
     name head
     direction -0.00420226 0.998397 -0.0564482  
     length 1.82234  
     axis 0 0 0   XYZ
    dof rx ry rz
    limits (-20.0 45.0)
           (-30.0 30.0)
           (-30.0 30.0)
  end
  begin
     id 17 
     name lclavicle
     direction 0.916488 0.396539 0.0529676  
     length 3.51732  
     axis 0 0 0   XYZ
    dof ry rz
    limits (-20.0 10.0)
           (0.0 20.0)
  end
  begin
     id 18 
     name lhumerus
     direction 1 -4.4896e-011 8.36962e-028   
     length 5.45077   
     axis 180 -30 -90   XYZ
    dof rx ry rz
    limits (-60.0 90.0)
           (-90.0 90.0)
           (-90.0 90.0)
  end
  begin
     id 19
     name lradius
     direction 1 -4.48962e-011 3.01407e-027   
     length 3.05488   
     axis 180 -30 -90   XYZ
    dof rx
    limits (-10.0 170.0)
  end
  begin
     id 20
     name lwrist
     direction 1 -4.49002e-011 4.72961e-027   
     length 1.52744   
     axis -2.72261e-015 90 90   XYZ
    dof ry
    limits (-180.0 0.0)
 end
  begin
     id 21 
     name lhand
     direction 1 -4.4899e-011 9.45681e-027   
     length 0.638818   
     axis -6.0311e-015 90 90   XYZ
    dof rx rz
    limits (-90.0 90.0)
           (-45.0 45.0)
  end
  begin
     id 22 
     name lfingers
     direction 1 -4.48871e-011 1.88632e-026   
     length 0.515032   
     axis -1.20625e-014 90 90   XYZ
    dof rx
    limits (0.0 90.0)
  end
  begin
     id 23
     name lthumb
     direction 0.707107 -6.34964e-011 0.707107   
     length 0.739485   
     axis -90 45 6.32835e-014   XYZ
    dof rx rz
    limits (-45.0 45.0)
           (-45.0 45.0)
  end
  begin
     id 24 
     name rclavicle
     direction -0.949427 0.303202 0.0815894   
     length 3.76167  
     axis 0 0 0   XYZ 
    dof ry rz
    limits (-10.0 20.0)
           (-20.0 0.0)
  end
  begin
     id 25 
     name rhumerus
     direction -1 -4.48971e-011 -6.43969e-018  
     length 4.88702   
     axis 180 30 90   XYZ
    dof rx ry rz
    limits (-90.0 60.0)
           (-90.0 90.0)
           (-90.0 90.0)
  end
  begin
     id 26 
     name rradius
     direction -1 -4.48987e-011 5.46662e-027   
     length 3.22603   
     axis 180 30 90   XYZ
    dof rx
    limits (-10.0 170.0)
  end
  begin
     id 27 
     name rwrist
     direction -1 -4.48956e-011 4.72476e-027   
     length 1.61302   
     axis -2.72261e-015 -90 -90   XYZ
    dof ry
    limits (-180.0 0.0)
  end
  begin
     id 28
     name rhand
     direction -1 -4.4889e-011 9.43571e-027   
     length 0.716293   
     axis -6.0311e-015 -90 -90   XYZ
    dof rx rz
    limits (-90.0 90.0)
           (-45.0 45.0)
  end
  begin
     id 29
     name rfingers
     direction -1 -4.48887e-011 1.88701e-026   
     length 0.577494   
     axis -1.20625e-014 -90 -90   XYZ
    dof rx
    limits (0.0 90.0)
  end
  begin
     id 30
     name rthumb
     direction -0.707107 -6.34825e-011 0.707107   
     length 0.829169   
     axis -90 -45 -6.32835e-014   XYZ
    dof rx rz
    limits (-45.0 45.0)
           (-45.0 45.0)
  end
:hierarchy
  begin
    root lhipjoint rhipjoint lowerback
    lhipjoint lfemur
    lfemur ltibia
    ltibia lfoot
    lfoot ltoes
    rhipjoint rfemur
    rfemur rtibia
    rtibia rfoot
    rfoot rtoes
    lowerback upperback
    upperback thorax
    thorax lowerneck lclavicle rclavicle
    lowerneck upperneck
    upperneck head
    lclavicle lhumerus
    lhumerus lradius
    lradius lwrist
    lwrist lhand lthumb
    lhand lfingers
    rclavicle rhumerus
    rhumerus rradius
    rradius rwrist
    rwrist rhand rthumb
    rhand rfingers
  end

#!OML:ASF F:\VICON\USERDATA\INSTALL\rory3\rory3.ASF
:FULLY-SPECIFIED
:DEGREES
1015
root 1.66565 18.5429 0.476352 16.4383 83.3896 3.41278
lowerback -11.7112 -3.13142 -4.04124
upperback -4.37274 -3.38647 -3.16441
thorax 2.02278 -1.58534 -1.46735
lowerneck -5.18943 -21.5252 -11.2209
upperneck -0.436642 -28.915 16.3424
head 4.62464 -13.9599 4.01988
rclavicle -3.79679e-014 -5.56597e-014
rhumerus 31.0211 -64.1306 -49.9655
rradius 61.4688
rwrist -198.032
rhand -11.2622 -11.1674
rfingers 7.12502
rthumb 14.7679 -40.6213
lclavicle -3.79679e-014 -5.56597e-014
lhumerus -79.054 -36.2977 88.4305
lradius 103.841
lwrist 180.356
lhand -19.5898 -4.66938
lfingers 7.12502
lthumb 6.73584 25.2035
rfemur -9.35536 -4.70022 16.4183
rtibia 7.95139e-016
rfoot -1.83385 11.235
rtoes -7.7313
lfemur -14.9425 10.3219 -19.6734
ltibia 16.4892
lfoot -14.2581 1.8446
ltoes -26.3043
1016
root 1.66936 18.5437 0.47554 16.5543 83.3961 3.53508
lowerback -11.7036 -3.13816 -4.03
upperback -4.38053 -3.39756 -3.16056
thorax 2.01018 -1.59074 -1.47043
lowerneck -5.23031 -21.5052 -11.1556
upperneck -0.387627 -28.8826 16.2157
head 4.61224 -13.9449 3.98204
rclavicle 5.96851e-014 1.59028e-015
rhumerus 31.0017 -64.0856 -49.9844
rradius 61.4838
rwrist -198.133
rhand -11.3812 -10.9979
rfingers 7.12502
rthumb 14.6532 -40.4602
lclavicle 5.96851e-014 1.59028e-015
lhumerus -79.0701 -36.2972 88.4427
lradius 103.831
lwrist 180.326
lhand -19.6346 -4.57352
lfingers 7.12502
lthumb 6.69255 25.3007
rfemur -9.32976 -4.71384 16.3938
rtibia -2.90226e-014
rfoot -1.83492 11.3002
rtoes -7.79633
lfemur -14.923 10.383 -19.696
ltibia 16.484
lfoot -14.2783 1.77902
ltoes -26.4682
1017
root 1.67182 18.5441 0.476056 16.4995 83.4326 3.45442
lowerback -11.7086 -3.13741 -4.00402
upperback -4.39445 -3.40004 -3.14625
thorax 1.99781 -1.5918 -1.47013
lowerneck -5.20466 -21.5097 -11.1731
upperneck -0.404648 -28.8852 16.1905
head 4.6015 -13.9492 3.98068
rclavicle 4.41302e-014 9.54166e-015
rhumerus 30.9519 -64.0769 -49.891
rradius 61.4132
rwrist -198.229
rhand -11.5609 -10.8322
rfingers 7.12502
rthumb 14.4801 -40.307
lclavicle 4.41302e-014 9.54166e-015
lhumerus -79.0948 -36.3627 88.499
lradius 103.813
lwrist 180.341
lhand -19.5918 -4.55194
lfingers 7.12502
lthumb 6.73393 25.321
rfemur -9.34182 -4.74844 16.414
rtibia -2.38542e-014
rfoot -1.76719 11.3115
rtoes -7.55335
lfemur -14.9503 10.392 -19.6824
ltibia 16.4815
lfoot -14.2716 1.7388
ltoes -26.4814
1018
root 1.67244 18.5444 0.474945 16.6578 83.4625 3.60148
lowerback -11.6686 -3.14751 -4.0043
upperback -4.40927 -3.41776 -3.12413
thorax 1.96207 -1.60023 -1.44668
lowerneck -5.2108 -21.4917 -11.2271
upperneck -0.379717 -28.858 16.162
head 4.60944 -13.9358 3.98067
rclavicle -2.4202e-014 -1.90833e-014
rhumerus 30.9868 -64.0764 -49.9198
rradius 61.3928
rwrist -198.328
rhand -11.6777 -10.8976
rfingers 7.12502
rthumb 14.3675 -40.3804
lclavicle -2.4202e-014 -1.90833e-014
lhumerus -79.088 -36.4039 88.5781
lradius 103.759
lwrist 180.34
lhand -19.4952 -4.47976
lfingers 7.12502
lthumb 6.82715 25.3902
rfemur -9.34115 -4.78261 16.4084
rtibia 1.31198e-014
rfoot -1.83716 11.2815
rtoes -7.8626
lfemur -14.9691 10.3835 -19.7016
ltibia 16.4828
lfoot -14.2642 1.7209
ltoes -26.6731
1019
root 1.67769 18.5433 0.471944 16.7842 83.4716 3.73843
lowerback -11.7043 -3.12558 -3.96391
upperback -4.38722 -3.39062 -3.12573
thorax 2.00204 -1.58788 -1.46981
lowerneck -5.2485 -21.4875 -11.2541
upperneck -0.355018 -28.8461 16.1106
head 4.61647 -13.9289 3.96703
rclavicle -6.95746e-016 -4.29375e-014
rhumerus 30.9293 -64.0906 -49.8484
rradius 61.4409
rwrist -198.303
rhand -11.624 -10.7699
rfingers 7.12502
rthumb 14.4193 -40.249
lclavicle -6.95746e-016 -4.29375e-014
lhumerus -79.0435 -36.4533 88.5845
lradius 103.729
lwrist 180.363
lhand -19.5105 -4.36266
lfingers 7.12502
lthumb 6.8124 25.5077
rfemur -9.31956 -4.79888 16.3823
rtibia 1.31198e-014
rfoot -1.84954 11.2462
rtoes -7.67654
lfemur -14.9307 10.4013 -19.731
ltibia 16.4836
lfoot -14.2932 1.68742
ltoes -26.7643
1020
root 1.68374 18.5427 0.470154 16.3735 83.4898 3.35114
lowerback -11.7354 -3.09401 -3.86693
upperback -4.35547 -3.35803 -3.12395
thorax 2.04673 -1.57367 -1.5202
lowerneck -5.26287 -21.4828 -11.2592
upperneck -0.361692 -28.8361 16.1017
head 4.61461 -13.9238 3.96577
rclavicle 4.52732e-014 1.43125e-014
rhumerus 30.571 -64.0495 -49.4776
rradius 61.4986
rwrist -198.354
rhand -11.4004 -10.715
rfingers 7.12502
rthumb 14.6347 -40.1786
lclavicle 4.52732e-014 1.43125e-014
lhumerus -78.9635 -36.5554 88.5597
lradius 103.724
lwrist 180.397
lhand -19.5683 -4.40589
lfingers 7.12502
lthumb 6.75656 25.4663
rfemur -9.26599 -4.80618 16.4149
rtibia -9.93923e-015
rfoot -1.80089 11.3093
rtoes -7.54874
lfemur -14.8569 10.4606 -19.6828
ltibia 16.4423
lfoot -14.2825 1.59546
ltoes -26.5691
1021
root 1.68751 18.541 0.469881 16.3394 83.4998 3.29461
lowerback -11.7892 -3.09599 -3.84696
upperback -4.33345 -3.35995 -3.10378
thorax 2.09912 -1.57558 -1.51427
lowerneck -5.36946 -21.4753 -11.2127
upperneck -0.29443 -28.8184 15.9955
head 4.62563 -13.9108 3.92396
rclavicle 5.34234e-014 3.33958e-014
rhumerus 30.6348 -64.0395 -49.5197
rradius 61.4936
rwrist -198.314
rhand -11.3266 -10.7822
rfingers 7.12502
rthumb 14.7059 -40.2406
lclavicle 5.34234e-014 3.33958e-014
lhumerus -78.9043 -36.5607 88.5175
lradius 103.767
lwrist 180.393
lhand -19.6671 -4.4539
lfingers 7.12502
lthumb 6.66121 25.4213
rfemur -9.27223 -4.81786 16.4178
rtibia -4.37326e-014
rfoot -1.76877 11.3242
rtoes -7.52564
lfemur -14.8526 10.4444 -19.6787
ltibia 16.404
lfoot -14.2742 1.60018
ltoes -26.3786
